SplineFontDB: 3.0
FontName: Experiment-Latin
FullName: Experiment-Latin
FamilyName: Experiment-Latin
Weight: Regular
Copyright: Copyright (c) 2015, Pathum Egodawatta
UComments: "2015-9-29: Created with FontForge (http://fontforge.org)"
Version: 0.001
ItalicAngle: 0
UnderlinePosition: 100
UnderlineWidth: 49
Ascent: 1000
Descent: 0
InvalidEm: 0
LayerCount: 2
Layer: 0 0 "Back" 1
Layer: 1 0 "Fore" 0
PreferredKerning: 4
XUID: [1021 779 -1439063335 14876943]
FSType: 0
OS2Version: 0
OS2_WeightWidthSlopeOnly: 0
OS2_UseTypoMetrics: 1
CreationTime: 1443542790
ModificationTime: 1455576512
PfmFamily: 17
TTFWeight: 400
TTFWidth: 5
LineGap: 122
VLineGap: 0
OS2TypoAscent: 129
OS2TypoAOffset: 1
OS2TypoDescent: 0
OS2TypoDOffset: 1
OS2TypoLinegap: 122
OS2WinAscent: 129
OS2WinAOffset: 1
OS2WinDescent: -161
OS2WinDOffset: 1
HheadAscent: 29
HheadAOffset: 1
HheadDescent: 183
HheadDOffset: 1
OS2CapHeight: 0
OS2XHeight: 0
OS2Vendor: 'PfEd'
MarkAttachClasses: 1
DEI: 91125
LangName: 1033
Encoding: Custom
UnicodeInterp: none
NameList: Adobe Glyph List
DisplaySize: -128
AntiAlias: 1
FitToEm: 1
WinInfo: 0 13 7
BeginPrivate: 0
EndPrivate
Grid
-1000 822.174682617 m 0
 2000 822.174682617 l 1024
-1000 801 m 0
 2000 801 l 1024
-1000 62 m 0
 2000 62 l 1024
2000 766 m 1024
-1000 1143 m 0
 2000 1143 l 1024
665 1500 m 0
 665 -500 l 1024
149 1500 m 0
 149 -500 l 1024
-1000 499 m 0
 2000 499 l 1024
-1000 612 m 0
 2000 612 l 1024
EndSplineSet
AnchorClass2: "thn_ubufibi" "" 
BeginChars: 155 155

StartChar: a
Encoding: 40 97 1
AltUni2: 0000aa.ffffffff.0
GlifName: uni0061
Width: 626
VWidth: 153
Flags: HMW
LayerCount: 2
Back
SplineSet
448 113 m 1
 448 113 387.673828125 -13 238 -13 c 0
 127.016601562 -13 55 32 55 125 c 0
 55 226 124.645507812 299.19140625 280 334 c 0
 371.66015625 354.537109375 446 346 446 346 c 1
 446 259 l 1
 446 259 382.010742188 298.114257812 305 287 c 0
 227.944335938 275.87890625 183.048828125 214.778320312 181 167 c 0
 178.264648438 103.212890625 211.5625 62.1572265625 279 58 c 0
 351.994140625 53.5 414 117.8125 420 159 c 1
 448 113 l 1
417 457 m 0
 396 546 311.684570312 555.455078125 287 552 c 0
 228.329101562 543.787109375 195.434570312 505.999023438 164 473 c 1
 220.0078125 557 l 1
 198.530273438 511.861328125 181.614257812 460.471679688 176 392 c 1
 88.1396484375 383 l 1
 81.9345703125 450.1796875 85 539 85 539 c 1
 134 566 240.01953125 610.842773438 339 611.013671875 c 0
 474.748046875 611.248046875 529.344726562 574.502929688 532 443 c 0
 533.576171875 364.958984375 517 166 534 95 c 0
 543 57 563 38 605 43 c 1
 616 4 l 1
 594.807617188 -4.4453125 539.655273438 -34.1240234375 482 -16 c 0
 437.524414062 -2.0185546875 428.541015625 36.7685546875 423 96 c 1
 413 110 l 1
 425 199 430.706054688 398.912109375 417 457 c 0
EndSplineSet
Fore
SplineSet
55 125 m 0
 55 226 125 296 280 331 c 0
 372 352 446 356 446 356 c 1
 446 273 l 1
 446 273 382 299 305 288 c 0
 228 277 183 218 181 160 c 0
 179 96 217 65 274 61 c 0
 347 56 414 118 420 159 c 1
 448 119 l 1
 448 119 388 -13 238 -13 c 0
 137 -13 55 32 55 125 c 0
95 539 m 1
 144 566 250 611 349 611 c 0
 485 611 529 575 532 443 c 0
 534 365 517 172 534 101 c 0
 543 63 563 44 605 49 c 1
 616 10 l 1
 595 2 540 -28 482 -10 c 0
 438 4 429 43 423 102 c 1
 413 116 l 1
 425 205 428 399 414 457 c 0
 393 546 332 561 287 553 c 0
 229 542 205 507 174 474 c 1
 230 557 l 1
 209 512 192 469 186 401 c 1
 98 392 l 1
 92 459 95 539 95 539 c 1
EndSplineSet
Colour: ff0000
EndChar

StartChar: n
Encoding: 53 110 2
GlifName: uni006E_
Width: 807
VWidth: 79
Flags: HMW
LayerCount: 2
Back
SplineSet
682.62890625 476.931640625 m 0
 689.381835938 397.946289062 681.903320312 113 677 0 c 1
 550 0 l 1
 574.154296875 113.708984375 581.047851562 319.502929688 570.803710938 417.126953125 c 0
 562.877929688 492.657226562 509.4296875 529.543945312 427 513 c 0
 345.936523438 496.73046875 281 417 281 417 c 1
 256 454 l 1
 294.055664062 514.724609375 415.8984375 606.36328125 520 611 c 0
 605.555664062 614.810546875 673.96484375 578.276367188 682.62890625 476.931640625 c 0
57 62 m 1
 133 63 165 72 169 130 c 1
 284 143 l 1
 274.751953125 47.67578125 341.915039062 46.7607421875 368 48 c 1
 378 0 l 1
 65 0 l 1
 57 62 l 1
454 58 m 1
 530 54 565 92 569 140 c 1
 682 139 l 1
 679 49 753 49 772 50 c 1
 782 0 l 1
 464 0 l 1
 454 58 l 1
54 596 m 1
 158 592 288 608 288 608 c 1
 288 608 271 496 265 470 c 1
 265 437 288 478 288 478 c 1
 282 338 293 181 275 0 c 1
 160 0 l 1
 175 200 181 397 174 459 c 0
 169 504 143 526 61 528 c 1
 54 596 l 1
EndSplineSet
Fore
SplineSet
49 595 m 5
 64 594 80 594 97 594 c 4
 191 594 293 608 293 608 c 5
 293 608 276 496 270 470 c 5
 270 461 272 457 275 457 c 0
 282 457 293 478 293 478 c 5
 291 437 291 395 291 351 c 0
 291 327 291 304 291 279 c 0
 291 193 290 100 280 0 c 1
 165 0 l 1
 176 144 182 286 182 378 c 0
 182 414 181 442 179 459 c 4
 174 504 138 532 56 534 c 5
 49 595 l 5
52 62 m 1
 64 61 75 60 85 60 c 0
 140 60 171 81 174 130 c 1
 289 143 l 1
 289 139 289 135 289 132 c 0
 289 56 337 48 365 48 c 0
 368 48 371 48 373 48 c 1
 383 0 l 1
 60 0 l 1
 52 62 l 1
261 454 m 1
 310 522 420 612 527 612 c 4
 603 612 661 575 675 481 c 4
 678 459 679 418 679 373 c 0
 679 254 671 82 667 0 c 1
 544 0 l 1
 562 79 571 202 571 303 c 0
 571 347 569 387 565 417 c 0
 556 480 514 513 455 513 c 4
 354 513 286 417 286 417 c 1
 261 454 l 1
448 62 m 1
 452 62 470 59 484 59 c 0
 523 59 558 69 564 140 c 1
 673 139 l 1
 670 60 728 50 755 50 c 0
 758 50 760 50 762 50 c 1
 772 0 l 1
 458 0 l 1
 448 62 l 1
EndSplineSet
EndChar

StartChar: d
Encoding: 43 100 3
GlifName: uni0064
Width: 726
VWidth: 79
Flags: HMW
LayerCount: 2
Back
SplineSet
474 136 m 5
 483.962890625 270.504882812 485.654296875 529.09375 480.217773438 718.8828125 c 4
 475.115234375 762.853515625 445.05078125 766 367 766 c 5
 360 829 l 5
 443 827 618 850 618 850 c 5
 593 650 589 208 593 145 c 4
 474 136 l 5
183.008789062 270 m 0
 181.942382812 167.05078125 223.369140625 75.9541015625 302.008789062 68 c 0
 383.40625 59.7666015625 459.291992188 126.734375 480.008789062 181 c 1
 511.008789062 140 l 1
 479.107421875 66 392.895507812 -12.91015625 280.008789062 -13 c 0
 134.999023438 -13.115234375 50.162109375 69.8994140625 49.0087890625 231 c 0
 47.9912109375 373.197265625 131.116210938 550.759765625 334.008789062 596 c 0
 412.350585938 613.46875 494.008789062 604 534.008789062 589 c 1
 494.008789062 501 l 1
 494.008789062 501 422.584960938 557.939453125 332.008789062 539 c 0
 244.211914062 520.641601562 184.567382812 420.450195312 183.008789062 270 c 0
550.008789062 -15 m 0
 496.715820312 -3.58984375 484.340820312 66.84765625 484.008789062 99 c 0
 483.560546875 108.749023438 475.137695312 129.8046875 474.74609375 142 c 0
 591.008789062 162 l 0
 596.463867188 80.44140625 624.682617188 44.87109375 703.008789062 57 c 1
 716.008789062 13 l 1
 663.836914062 -12.54296875 608.147460938 -27.447265625 550.008789062 -15 c 0
EndSplineSet
Fore
SplineSet
49 231 m 0
 48 373 131 551 334 596 c 0
 412 613 494 604 534 589 c 1
 494 501 l 1
 494 501 423 558 332 539 c 0
 244 521 185 420 183 270 c 0
 182 167 223 76 302 68 c 0
 383 60 459 127 480 181 c 1
 511 140 l 1
 479 66 393 -13 280 -13 c 0
 135 -13 50 70 49 231 c 0
355 830 m 5
 438 828 609 850 609 850 c 5
 577 682 587 219 591 162 c 4
 597 80 625 45 703 57 c 5
 716 13 l 5
 664 -13 608 -27 550 -15 c 4
 497 -4 484 67 484 99 c 4
 484 109 475 130 475 142 c 4
 489 246 483 583 477 707 c 4
 475 754 432 767 360 766 c 5
 355 830 l 5
EndSplineSet
EndChar

StartChar: h
Encoding: 47 104 4
GlifName: uni0068
Width: 801
VWidth: 79
Flags: HMW
LayerCount: 2
Back
SplineSet
651.62890625 476.931640625 m 0
 660.693359375 398.177734375 650.903320312 113 646 0 c 1
 519 0 l 1
 543.154296875 113.708984375 550.047851562 319.502929688 539.803710938 417.126953125 c 0
 531.877929688 492.657226562 478.4296875 529.543945312 396 513 c 0
 314.936523438 496.73046875 250 417 250 417 c 1
 225 454 l 1
 263.055664062 514.724609375 386.8984375 606.36328125 491 611 c 0
 576.555664062 614.810546875 639.96484375 578.276367188 651.62890625 476.931640625 c 0
28 852 m 1
 111 850 289 873 289 873 c 1
 289 873 280 841 273 784 c 5
 273 780 268 755 268 751 c 5
 237 748 l 4
 149 723 l 4
 150 785 123 789 35 789 c 5
 28 852 l 1
312 1 m 1
 115 0 l 1
 115 0 134 72 142 136 c 1
 154 298 154 663 144 848 c 1
 289 873 l 1
 264 673 260 208 264 145 c 0
 267 101 246 49 328 49 c 1
 312 1 l 1
30 61 m 1
 106 57 136 89 143 137 c 1
 264 146 l 1
 262 51 338 50 356 51 c 1
 366 0 l 1
 40 0 l 1
 30 61 l 1
428 61 m 1
 504 57 534 89 538 137 c 1
 650 154 l 1
 647 64 731 60 750 61 c 1
 760 0 l 1
 438 0 l 1
 428 61 l 1
EndSplineSet
Fore
SplineSet
40 61 m 1
 116 57 149 89 156 137 c 1
 274 146 l 1
 272 51 348 50 366 51 c 1
 376 0 l 1
 50 0 l 1
 40 61 l 1
41 829 m 1
 124 827 298 850 298 850 c 1
 273 637 270 208 274 145 c 0
 277 101 256 49 338 49 c 1
 322 1 l 1
 128 0 l 1
 128 0 147 72 155 136 c 0
 165 271 166 529 161 719 c 0
 156 763 126 766 48 766 c 1
 41 829 l 1
235 448 m 1
 283 519 405 604 499 611 c 0
 589 617 649 578 664 477 c 0
 675 399 661 113 656 0 c 1
 529 0 l 1
 546 79 556 202 556 303 c 0
 556 347 554 387 550 417 c 0
 539 493 485 526 406 509 c 0
 325 492 260 417 260 417 c 1
 235 448 l 1
435 58 m 1
 439 58 441 58 444 58 c 0
 513 58 544 94 548 140 c 1
 662 139 l 1
 659 49 732 49 751 50 c 1
 761 0 l 1
 443 0 l 1
 435 58 l 1
EndSplineSet
EndChar

StartChar: e
Encoding: 44 101 5
GlifName: uni0065
Width: 593
VWidth: 153
Flags: HMW
LayerCount: 2
Back
SplineSet
120.786132812 346 m 5
 367.786132812 368 l 1
 430.786132812 368 l 1
 421.786132812 497 361.7734375 563.91015625 283.786132812 555 c 0
 239.935546875 549.990234375 152.072265625 510.348632812 170.786132812 319 c 0
 184.67578125 176.98046875 232.200195312 78.201171875 345.786132812 63 c 0
 449.982421875 49.0556640625 538.786132812 113 540.786132812 113 c 1
 569.786132812 77 l 0
 550.786132812 60 468.776367188 -14.271484375 341.786132812 -16 c 0
 194.78515625 -18.0009765625 51.1875 53.0205078125 40.7861328125 257 c 0
 28.10546875 505.689453125 185.861328125 605.030273438 302.786132812 609 c 0
 487.811523438 615.282226562 574.786132812 477 554.786132812 298 c 1
 144.786132812 298 l 1
 120.786132812 346 l 5
EndSplineSet
Fore
SplineSet
41 240 m 0
 28 479 171 599 298 609 c 0
 466 623 571 527 553 298 c 1
 151 296 l 1
 121 344 l 1
 378 367 l 1
 438 368 l 1
 428 507 353 565 294 559 c 0
 201 550 160 462 163 329 c 0
 165 228 186 78 324 53 c 0
 427 34 517 102 519 102 c 1
 543 68 l 1
 524 51 449 -19 322 -21 c 0
 195 -23 52 36 41 240 c 0
EndSplineSet
EndChar

StartChar: i
Encoding: 48 105 6
GlifName: uni0069
Width: 413
VWidth: 79
Flags: HMW
LayerCount: 2
Back
SplineSet
120.1953125 788.1328125 m 0
 120.1953125 835.697265625 158.700195312 874.202148438 206.264648438 874.202148438 c 0
 253.830078125 874.202148438 292.334960938 835.697265625 292.334960938 788.1328125 c 0
 292.334960938 740.567382812 253.830078125 702.0625 206.264648438 702.0625 c 0
 158.700195312 702.0625 120.1953125 740.567382812 120.1953125 788.1328125 c 0
50 68 m 1
 116 64 148 86 152 144 c 1
 275 149 l 1
 273 54 335 60 363 61 c 1
 373 0 l 1
 57 0 l 1
 50 68 l 1
49 592 m 1
 132 590 289 603 289 603 c 1
 279.327148438 547.604492188 277.629882812 87.107421875 269 0 c 1
 143 0 l 1
 158 200 159 387 152 449 c 0
 147 494 127 524 55 524 c 1
 49 592 l 1
EndSplineSet
Fore
SplineSet
49 584 m 5
 132 582 289 595 289 595 c 5
 279 540 278 87 269 0 c 1
 159 0 l 1
 174 200 175 386 168 448 c 4
 163 493 127 523 55 523 c 5
 49 584 l 5
50 61 m 1
 116 57 164 79 168 137 c 1
 275 142 l 1
 273 47 335 53 363 54 c 1
 373 0 l 1
 57 0 l 1
 50 61 l 1
143 782 m 0
 143 824 177 852 218 852 c 0
 268 852 293 813 293 771 c 0
 293 729 259 701 218 701 c 0
 177 701 143 740 143 782 c 0
EndSplineSet
EndChar

StartChar: s
Encoding: 58 115 7
GlifName: uni0073
Width: 531
VWidth: 153
Flags: HMW
LayerCount: 2
Back
SplineSet
243 47 m 0
 301.53125 46.4580078125 348.39453125 87.744140625 356 131.4140625 c 0
 379.359375 265.549804688 86.7275390625 249.123046875 64 412 c 0
 49.3701171875 516.848632812 145.05078125 608.756835938 302 606 c 0
 396.024414062 604.348632812 458 580 458 580 c 1
 462.323242188 542.447265625 460.184570312 471.194335938 455 437 c 1
 375 445 l 1
 373.559570312 482.333007812 358.795898438 542.666992188 338 591 c 1
 393 462 l 1
 379.317382812 478.264648438 357.96484375 550.783203125 274 551.381835938 c 0
 217.659179688 551.783203125 184.045898438 511.095703125 194 466 c 0
 219.3203125 351.291992188 459.510742188 368.948242188 476 184 c 0
 486.04296875 71.3583984375 379.010742188 -13.544921875 235 -14 c 0
 122.419921875 -14.35546875 39 18 39 18 c 1
 35.111328125 53.1884765625 36.8671875 115.701171875 46 176 c 1
 129 167 l 1
 131.750976562 119.7890625 140.740234375 75.5732421875 165 41 c 1
 124.46875 52.052734375 112.418945312 95.958984375 105 139 c 1
 137.305664062 104.682617188 156.556640625 47.80078125 243 47 c 0
EndSplineSet
Fore
SplineSet
49 7 m 5
 45 42 47 105 56 165 c 5
 139 156 l 5
 142 109 151 65 175 30 c 5
 134 41 122 85 115 128 c 5
 147 94 167 37 253 36 c 4
 313 35 355 82 363 126 c 0
 386 260 98 249 74 412 c 0
 58 516 145 609 302 606 c 0
 396 604 458 580 458 580 c 1
 462 542 460 471 455 437 c 1
 375 445 l 1
 374 482 359 543 338 591 c 2
 393 462 l 1
 379 478 358 554 274 555 c 0
 218 555 174 512 184 466 c 0
 209 351 460 349 476 184 c 0
 487 71 389 -25 245 -25 c 4
 132 -25 49 7 49 7 c 5
EndSplineSet
EndChar

StartChar: o
Encoding: 54 111 8
AltUni2: 0000ba.ffffffff.0
GlifName: o
Width: 662
VWidth: 153
Flags: HMW
LayerCount: 2
Back
SplineSet
376.670898438 611.631835938 m 4
 194.022460938 616.409179688 52.15234375 465.428710938 44.0185546875 255.5859375 c 0
 37.9921875 100.102539062 125.208007812 -9.572265625 313.635742188 -14.4541015625 c 0
 536.596679688 -20.23046875 625.932617188 146.333007812 631.072265625 322.662109375 c 0
 637.393554688 539.545898438 524.641601562 607.76171875 376.670898438 611.631835938 c 4
490.171875 297.67578125 m 0
 486.427734375 167.583007812 446.250976562 59.431640625 349.459960938 48.4140625 c 0
 235.208984375 35.4091796875 182.90625 186.602539062 187.434570312 318.36328125 c 0
 193.868164062 505.547851562 282.1015625 548.077148438 327.977539062 553.431640625 c 0
 413.30859375 563.390625 494.677734375 454.274414062 490.171875 297.67578125 c 0
EndSplineSet
Fore
SplineSet
44 246 m 4
 45 90 121 -15 299 -18 c 4
 522 -22 611 148 616 324 c 4
 622 531 516 614 362 615 c 4
 179 616 42 466 44 246 c 4
171 318 m 4
 176 505 267 552 313 556 c 4
 424 566 503 455 498 298 c 4
 494 168 441 55 344 44 c 4
 230 31 166 156 171 318 c 4
EndSplineSet
EndChar

StartChar: b
Encoding: 41 98 9
GlifName: b
Width: 692
VWidth: 79
Flags: HMW
LayerCount: 2
Back
SplineSet
0 819 m 5
 83 817 254 839 254 839 c 5
 254 839 245 800 238 743 c 5
 238 739 233 714 233 710 c 5
 216 707 l 4
 122 677 l 4
 127 729 88 758 0 758 c 5
 0 819 l 5
279 1 m 5
 116 24 l 5
 118.794921875 180.715820312 125.564453125 631.268554688 118 815 c 5
 253 834 l 5
 217.078125 546.623046875 219.814453125 183.802734375 227 45 c 5
 279 1 l 5
519 349 m 4
 519.874023438 485.951171875 448.341808951 535.290461064 386 534 c 4
 328.950355759 532.819085525 258.716796875 488.265625 223 404 c 5
 189 445 l 5
 236.901367188 558 342.11328125 612.911132812 427 613 c 4
 572.009765625 613.15234375 649 515 643 344 c 4
 636.958007812 171.802734375 553.734375 -10.203125 324 -12 c 4
 225.939453125 -12.7666015625 158 7 115 24 c 5
 185 152 l 5
 185 152 249.77734375 30.8427734375 367 52 c 4
 448.831054688 66.76953125 517.829196849 165.546265528 519 349 c 4
EndSplineSet
Fore
SplineSet
-7 830 m 1
 76 828 247 850 247 850 c 1
 215 682 225 219 229 162 c 0
 235 80 223 35 301 47 c 1
 314 3 l 1
 113 22 l 1
 126 127 133 572 115 707 c 0
 109 754 70 767 -2 766 c 1
 -7 830 l 1
113 22 m 1
 185 152 l 1
 185 152 250 31 367 52 c 0
 449 67 518 166 519 349 c 0
 520 486 448 535 386 534 c 0
 329 533 259 488 223 404 c 1
 189 445 l 1
 237 558 342 613 427 613 c 0
 572 613 649 515 643 344 c 0
 637 172 554 -10 324 -12 c 0
 226 -13 156 5 113 22 c 1
EndSplineSet
EndChar

StartChar: r
Encoding: 57 114 10
GlifName: r
Width: 594
VWidth: 79
Flags: HMW
LayerCount: 2
Back
SplineSet
461 429 m 1053
547.62890625 606.931640625 m 5,0,1
 560.979304676 545.140392989 555.783202328 486.432928999 547.3359375 427.185546875 c 5,11,12
 461 429 l 5,0,0
 453.53125 451.228515625 446.063476562 473.458007812 435 490.4765625 c 5,0,0
 306.106445312 489.979492188 258.503299742 424.487976481 246 397 c 5,15,-1
 241 444 l 5,16,17
 284.417257879 513.413357003 404.184570312 607.883789062 501 609.767578125 c 4,0,0
 529.2578125 610.317382812 547.62890625 606.931640625 547.62890625 606.931640625 c 5,0,1
52 63 m 5,22,23
 63.8515625 61.5966796875 74.8759765625 60.8740234375 85.05859375 60.8740234375 c 4,24,25
 140.174804688 60.8740234375 170.624023438 82.0439453125 174 131 c 5,26,-1
 288 150 l 5,27,28
 287.791992188 146.228515625 287.69140625 142.60546875 287.69140625 139.124023438 c 4,29,30
 287.69140625 62.9560546875 356.818359375 48.7841796875 404.6640625 48.7841796875 c 4,31,32
 407.716796875 48.7841796875 410.525390625 48.8828125 413 49 c 5,33,-1
 423 1 l 5,34,-1
 60 1 l 5,35,-1
 52 63 l 5,22,23
49 595 m 5,50,51
 64.4892578125 593.95703125 80.77734375 593.513671875 97.2822265625 593.513671875 c 4,52,53
 191.596679688 593.513671875 293 608 293 608 c 5,54,55
 293 608 276 486 270 460 c 5,56,57
 293 468 l 5,60,61
 290.176757812 402.124023438 286.036132812 348.6171875 286.036132812 279 c 4,64,65
 286.036132812 192.529296875 286.936523438 99.921875 300 0 c 5,66,-1
 165 0 l 5,67,68
 175.778320312 143.716796875 181.91015625 285.884765625 181.91015625 377.525390625 c 4,69,70
 181.91015625 413.413085938 180.969726562 441.552734375 179 459 c 4,71,72
 174 504 138 532 56 534 c 5,73,-1
 49 595 l 5,50,51
EndSplineSet
Fore
SplineSet
49 595 m 1
 64 594 80 594 97 594 c 0
 191 594 293 608 293 608 c 1
 293 608 276 486 270 460 c 1
 293 468 l 1
 290 402 286 349 286 279 c 0
 286 193 287 100 300 0 c 1
 165 0 l 1
 176 144 182 286 182 378 c 0
 182 414 181 442 179 459 c 0
 174 504 138 532 56 534 c 1
 49 595 l 1
52 63 m 1
 64 62 75 61 85 61 c 0
 140 61 171 82 174 131 c 1
 288 150 l 1
 288 146 288 142 288 139 c 0
 288 63 357 49 405 49 c 0
 408 49 411 49 413 49 c 1
 423 1 l 1
 60 1 l 1
 52 63 l 1
215 350 m 5
 224 454 352 563 470 601 c 0
 528 620 573 609 573 609 c 1
 575 571 565 461 558 416 c 1
 498 422 l 1
 477 465 448 504 399 538 c 1
 520 475 l 1
 520 475 456 504 384 483 c 0
 318 464 261 416 259 295 c 1
 215 350 l 5
461 429 m 1049
EndSplineSet
Colour: ff0000
EndChar

StartChar: period
Encoding: 8 46 11
GlifName: period
Width: 175
VWidth: 79
Flags: HMW
LayerCount: 2
Back
Fore
SplineSet
16 61 m 0
 16 100 47 125 85 125 c 0
 131 125 154 93 154 54 c 0
 154 15 123 -11 85 -11 c 0
 47 -11 16 22 16 61 c 0
EndSplineSet
EndChar

StartChar: t
Encoding: 59 116 12
GlifName: t
Width: 475
VWidth: 79
Flags: HMW
LayerCount: 2
Back
Fore
SplineSet
20 584 m 1
 54 586 118 583 140 584 c 1
 140 584 139 678 141 767 c 1
 256 792 l 1
 237 563 229 200 260 132 c 0
 289 70 357 54 425 95 c 1
 451 60 l 1
 430 36 359 -12 278 -13 c 0
 194 -14 127 42 131 140 c 0
 133 193 139 340 133 498 c 1
 133 498 103 517 35 517 c 1
 20 584 l 1
142 584 m 1
 164 585 177 583 202 584 c 1
 397 584 l 1
 409 520 l 1
 232 505 l 1
 207 506 184 465 156 485 c 1
 142 584 l 1
EndSplineSet
EndChar

StartChar: p
Encoding: 55 112 13
GlifName: p
Width: 761
VWidth: 79
Flags: HMW
LayerCount: 2
Back
Fore
SplineSet
40 595 m 1
 55 594 71 594 88 594 c 0
 182 594 284 608 284 608 c 1
 284 608 267 506 261 480 c 1
 284 488 l 1
 281 422 277 349 277 279 c 0
 277 193 278 -117 291 -217 c 1
 156 -217 l 1
 167 -73 173 286 173 378 c 0
 173 414 172 442 170 459 c 0
 165 504 130 536 47 534 c 1
 40 595 l 1
43 -156 m 1
 55 -157 66 -158 76 -158 c 0
 131 -158 160 -150 163 -101 c 5
 282 -82 l 5
 282 -86 282 -90 282 -93 c 4
 282 -169 341 -170 389 -170 c 0
 392 -170 395 -170 397 -170 c 1
 407 -218 l 1
 51 -218 l 1
 43 -156 l 1
227 12 m 1
 267 100 l 1
 267 100 338 43 429 62 c 0
 517 80 576 181 578 331 c 0
 579 434 548 524 459 533 c 0
 378 541 302 474 281 420 c 1
 250 461 l 1
 282 535 378 614 491 614 c 0
 635 614 711 531 712 370 c 0
 713 228 630 50 427 5 c 0
 349 -12 267 -3 227 12 c 1
EndSplineSet
EndChar

StartChar: v
Encoding: 61 118 14
GlifName: v
Width: 681
VWidth: 79
Flags: HMW
LayerCount: 2
Back
SplineSet
662 538 m 1
 592.022460938 535.735351562 597.107421875 508.028320312 576.810546875 455.861328125 c 0
 508 279 416.959960938 88.9033203125 379.661132812 8.6162109375 c 9
 255.399414062 -24.650390625 l 1
 216.270507812 86.927734375 183.459960938 225.581054688 103.497070312 462.43359375 c 1
 84.3037109375 526.984375 68.650390625 532.875976562 12 532 c 1
 -2 596 l 1
 112 590.78125 206 592.904296875 320 596 c 1
 334 542 l 1
 258 536 205 525 220 460 c 1
 219.7265625 459.962890625 l 1
 247.463867188 361.939453125 288.78125 252.842773438 313.678710938 158 c 1
 316.244140625 135.912109375 333 45 330.991210938 51 c 5
 360.858398438 122.987304688 438.057617188 302.979492188 501.733398438 468.791992188 c 1
 519.560546875 526.806640625 457.559570312 535.975585938 390 533 c 1
 381 596 l 1
 477.666992188 590.463867188 554.333007812 592.002929688 651 596 c 1
 662 538 l 1
EndSplineSet
Fore
SplineSet
-2 596 m 5
 112 591 206 593 320 596 c 5
 334 542 l 5
 258 536 210 525 225 460 c 5
 253 362 284 292 309 197 c 5
 320 162 336 69 336 69 c 5
 370 141 458 353 492 459 c 4
 510 518 472 536 404 533 c 5
 395 596 l 5
 492 590 568 592 665 596 c 5
 676 538 l 5
 606 536 600 507 578 456 c 4
 502 279 413 76 376 -4 c 5
 347 -7 307 -16 273 -26 c 5
 234 86 183 225 103 462 c 5
 84 527 53 539 6 538 c 5
 -2 596 l 5
EndSplineSet
EndChar

StartChar: m
Encoding: 52 109 15
GlifName: m
Width: 1177
VWidth: 79
Flags: HMW
LayerCount: 2
Back
SplineSet
1052.62890625 476.931640625 m 0
 1058.77929688 397.897460938 1051.90332031 113 1047 0 c 1
 907 0 l 1
 931.154296875 113.708984375 938.047851562 319.502929688 927.803710938 417.126953125 c 0
 919.877929688 492.657226562 859.4296875 524.543945312 797 513 c 0
 715.698242188 497.966796875 661 437 661 437 c 1
 636 474 l 1
 674.055664062 524.724609375 780.8984375 608.36328125 885 613 c 0
 970.555664062 616.810546875 1043.96484375 588.276367188 1052.62890625 476.931640625 c 0
824 65 m 1
 900 61 922 99 926 147 c 1
 1052 146 l 1
 1049 56 1123 56 1142 57 c 1
 1152 0 l 1
 834 0 l 1
 824 65 l 1
662.62890625 476.931640625 m 0
 668.779296875 397.897460938 661.903320312 113 657 0 c 1
 517 0 l 1
 541.154296875 113.708984375 548.047851562 319.502929688 537.803710938 417.126953125 c 0
 529.877929688 492.657226562 473.4296875 524.543945312 411 513 c 0
 329.698242188 497.966796875 266 412 266 412 c 1
 241 449 l 1
 269.055664062 509.724609375 391.8984375 608.36328125 496 613 c 4
 581.555664062 616.810546875 653.96484375 588.276367188 662.62890625 476.931640625 c 0
41 62 m 1
 117 63 149 79 153 137 c 1
 279 150 l 1
 269.751953125 54.67578125 336.915039062 53.7607421875 363 55 c 1
 373 0 l 1
 49 0 l 1
 41 62 l 1
440 65 m 1
 516 61 532 99 536 147 c 1
 662 146 l 1
 659 56 733 56 752 57 c 1
 762 0 l 1
 450 0 l 1
 440 65 l 1
38 596 m 1
 142 592 283 608 283 608 c 1
 283 608 266 496 260 470 c 1
 260 437 283 478 283 478 c 1
 277 338 288 181 270 0 c 1
 144 0 l 1
 159 200 165 397 158 459 c 0
 153 504 127 526 45 528 c 1
 38 596 l 1
EndSplineSet
Fore
SplineSet
49 596 m 1
 153 592 283 608 283 608 c 1
 283 608 266 496 260 470 c 1
 260 437 283 478 283 478 c 1
 277 338 288 181 270 0 c 1
 155 0 l 1
 170 200 176 397 169 459 c 0
 164 504 138 526 56 528 c 1
 49 596 l 1
52 62 m 1
 128 63 160 72 164 130 c 1
 279 143 l 1
 274 48 337 47 363 48 c 1
 373 0 l 1
 60 0 l 1
 52 62 l 1
221 454 m 1
 259 515 385 605 489 611 c 0
 588 617 637 578 652 477 c 0
 663 399 651 113 646 0 c 1
 519 0 l 1
 543 114 550 319 540 417 c 0
 532 493 478 530 396 513 c 0
 315 497 246 417 246 417 c 1
 221 454 l 1
443 58 m 1
 519 54 534 92 538 140 c 1
 651 139 l 1
 648 49 712 49 731 50 c 1
 741 0 l 1
 453 0 l 1
 443 58 l 1
611 454 m 1
 649 515 771 605 875 611 c 0
 974 617 1023 578 1038 477 c 0
 1049 399 1037 113 1032 0 c 1
 905 0 l 1
 929 114 936 319 926 417 c 0
 918 493 864 530 782 513 c 0
 701 497 636 417 636 417 c 1
 611 454 l 1
819 58 m 1
 895 54 920 92 924 140 c 1
 1037 139 l 1
 1034 49 1108 49 1127 50 c 1
 1137 0 l 1
 829 0 l 1
 819 58 l 1
EndSplineSet
EndChar

StartChar: g
Encoding: 46 103 16
GlifName: g
Width: 727
VWidth: 153
Flags: HMW
LayerCount: 2
Back
SplineSet
475 541 m 21
 504.642578125 543.012695312 585.03125 560.997070312 687 611 c 5
 692.575195312 574 694.013671875 516 690 486 c 5
 634.099609375 487.651367188 567.861328125 487.952148438 517 488 c 13
 475 541 l 21
351 45 m 21
 292.846679688 30.921875 172.095703125 -24.0087890625 171.66015625 -106.14453125 c 4
 171.321528492 -170.003196905 243.0234375 -205.37890625 357.799804688 -198.712890625 c 4
 426.669921875 -194.712890625 520.071289062 -145.645507812 520.071289062 -78.5380859375 c 4
 520.071289062 60.2900390625 230.845703125 60.7626953125 67 46.7880859375 c 5
 69 113 l 5
 99 148 155 198 211 240 c 5
 251 216 l 5
 220 193 191.397460938 159.08203125 161 126 c 5
 387.934570312 156.102539062 636.467773438 126.79296875 635.25390625 -35.34375 c 4
 634.18359375 -178.364257812 458.000976562 -264.379882812 305.907226562 -265.24609375 c 4
 156.54296875 -266.096679688 39.1142578125 -223.643554688 38.6875 -132.228515625 c 4
 38.015625 11.6806640625 255.303710938 65.033203125 358.662109375 80.2421875 c 4
 351 45 l 21
440.759765625 411.188476562 m 4
 440.759765625 484.5078125 403.372070312 558.1484375 302.224609375 558.1484375 c 4
 233.801757812 558.1484375 172.729492188 498.283203125 172.729492188 413.743164062 c 4
 172.729492188 321.896484375 231.07421875 271.01953125 315.58984375 271.01953125 c 4
 389.826171875 271.01953125 440.759765625 331.7578125 440.759765625 411.188476562 c 4
559.09375 453.286132812 m 4
 559.09375 301.490234375 431.084960938 213.063476562 295.465820312 213.063476562 c 4
 150.465820312 213.063476562 55.451171875 266.000976562 54.744140625 377.9921875 c 4
 53.853515625 519.149414062 189.806640625 610.5859375 331.556640625 610.5859375 c 4
 446.807617188 610.5859375 559.09375 571.178710938 559.09375 453.286132812 c 4
EndSplineSet
Fore
SplineSet
39 -172 m 0
 22 -114 56 11 249 56 c 1
 313 38 l 17
 270 28 167 -19 167 -102 c 0
 167 -151 195 -215 331 -215 c 0
 432 -215 540 -151 540 -79 c 0
 540 70 153 40 77 37 c 1
 63 58 63 96 69 119 c 1
 99 154 154 201 211 240 c 1
 261 226 l 1
 230 203 160 123 220 130 c 1
 477 150 656 111 655 -51 c 0
 654 -194 442 -283 290 -284 c 0
 131 -285 59 -240 39 -172 c 0
75 370 m 0
 74 511 210 611 352 611 c 0
 467 611 579 571 579 453 c 0
 579 301 445 217 309 217 c 0
 164 217 76 258 75 370 c 0
189 404 m 0
 189 312 241 273 326 274 c 0
 410 275 454 347 454 426 c 0
 454 499 415 558 327 558 c 0
 259 558 189 499 189 404 c 0
525 520 m 17
 555 522 635 561 737 621 c 1
 743 584 744 506 740 476 c 1
 684 478 618 478 567 478 c 9
 525 520 l 17
EndSplineSet
EndChar

StartChar: H
Encoding: 19 72 17
GlifName: H_
Width: 902
VWidth: 79
Flags: HMW
LayerCount: 2
Back
Fore
SplineSet
42 61 m 1
 118 57 148 89 155 137 c 1
 274 146 l 1
 272 51 348 50 366 51 c 1
 376 0 l 1
 52 0 l 1
 42 61 l 1
61 800 m 1
 174 792 253 795 361 800 c 1
 371 749 l 1
 353 750 284 749 286 654 c 1
 160 663 l 1
 153 711 143 743 67 739 c 1
 61 800 l 1
127 0 m 1
 127 0 146 72 154 136 c 1
 166 298 166 583 156 768 c 1
 299 793 l 1
 274 593 270 208 274 145 c 0
 277 101 256 49 338 49 c 1
 322 1 l 1
 127 0 l 1
194 367 m 1
 194 433 l 1
 603 434 l 5
 747 441 l 5
 747 370 l 5
 194 367 l 1
537 58 m 5
 613 54 648 92 652 140 c 5
 770 139 l 5
 767 49 833 49 852 50 c 5
 862 0 l 5
 547 0 l 5
 537 58 l 5
552 800 m 5
 668 790 750 794 856 800 c 5
 861 749 l 5
 843 750 783 749 779 654 c 5
 655 663 l 5
 648 711 636 743 560 739 c 5
 552 800 l 5
624 0 m 5
 624 0 643 72 651 136 c 5
 663 298 660 583 650 768 c 5
 792 793 l 5
 767 593 767 208 770 145 c 4
 772 101 752 49 834 49 c 5
 818 1 l 5
 624 0 l 5
EndSplineSet
EndChar

StartChar: A
Encoding: 12 65 18
GlifName: A_
Width: 863
VWidth: 79
Flags: HMW
LayerCount: 2
Back
Fore
SplineSet
42 61 m 1
 123 52 145 86 164 136 c 0
 257 377 326 583 381 768 c 5
 420 774 468 786 507 799 c 5
 568 589 637 418 737 150 c 0
 754 104 775 43 843 55 c 1
 853 0 l 1
 741 0 629 0 517 0 c 1
 507 64 l 1
 578 53 629 65 613 124 c 0
 579 249 505 396 462 541 c 4
 454 580 439 635 431 676 c 5
 371 468 279 210 264 145 c 0
 243 49 318 50 366 51 c 1
 376 0 l 1
 268 0 160 0 52 0 c 1
 42 61 l 1
285 308 m 1
 285 366 l 1
 608 374 l 1
 608 311 l 1
 285 308 l 1
EndSplineSet
EndChar

StartChar: B
Encoding: 13 66 19
GlifName: B_
Width: 719
VWidth: 79
Flags: HMW
LayerCount: 2
Back
Fore
SplineSet
17 798 m 1
 205 786 246 803 396 803 c 4
 531 803 612 738 613 618 c 0
 614 524 548 417 441 412 c 1
 473 437 l 1
 613 401 669 313 668 210 c 0
 666 18 521 0 320 0 c 1
 252 -1 107 0 33 0 c 1
 23 61 l 1
 102 51 133 77 135 127 c 0
 144 342 147 468 139 628 c 0
 136 686 119 742 27 735 c 1
 17 798 l 1
244 375 m 1
 243 275 243 197 253 123 c 0
 260 65 305 61 358 61 c 0
 471 62 546 119 546 219 c 0
 546 306 475 383 370 386 c 0
 327 387 279 382 244 375 c 1
246 450 m 1
 442 426 488 530 490 587 c 0
 493 677 433 745 355 747 c 0
 309 748 275 739 252 730 c 1
 244 653 247 548 246 450 c 1
EndSplineSet
EndChar

StartChar: W
Encoding: 34 87 20
GlifName: W_
Width: 1231
VWidth: 79
Flags: HMW
LayerCount: 2
Back
Fore
SplineSet
-15 800 m 1
 101 796 233 793 321 800 c 1
 331 736 l 1
 260 747 209 735 225 676 c 0
 259 551 333 370 376 225 c 0
 384 192 399 135 407 100 c 1
 467 301 559 592 574 655 c 1
 674 664 l 1
 581 430 512 188 457 8 c 1
 418 2 370 -10 331 -23 c 1
 270 181 201 390 101 650 c 0
 84 696 63 748 -5 736 c 1
 -15 800 l 1
459 800 m 1
 571 800 683 800 795 800 c 1
 805 736 l 1
 734 747 683 735 699 676 c 0
 733 551 799 370 842 225 c 0
 850 192 865 135 873 100 c 1
 933 301 1024 592 1039 655 c 0
 1060 751 985 750 937 749 c 1
 927 800 l 1
 1035 800 1143 800 1251 800 c 1
 1261 739 l 1
 1180 748 1158 714 1139 664 c 0
 1046 430 978 188 923 8 c 1
 884 2 836 -10 797 -23 c 1
 736 181 675 390 575 650 c 0
 558 696 537 757 469 745 c 1
 459 800 l 1
EndSplineSet
EndChar

StartChar: c
Encoding: 42 99 21
GlifName: c
Width: 583
VWidth: 79
Flags: HMWO
LayerCount: 2
Back
SplineSet
169.010742188 329 m 4
 167.754882812 206.052734375 210.004882812 64.431640625 349.010742188 62 c 4
 414.020507812 60.8623046875 468.001953125 91 505.010742188 126 c 5
 536.010742188 92 l 5
 484.109375 28 410.001953125 -15 306.010742188 -15 c 4
 157.000976562 -15 46.09765625 69.8994140625 45.0107421875 231 c 4
 43.8369140625 404.986328125 136.03515625 598.454101562 382.001953125 598.419921875 c 4
 480.020507812 598.40625 543.001953125 569 543.001953125 569 c 5
 545.325195312 531.447265625 542.186523438 459.194335938 535.001953125 414 c 5
 455.001953125 416 l 5
 451.509765625 448.768554688 441.643554688 503.46484375 419.953125 537.573242188 c 5
 470.001953125 475.360351562 l 5
 470.001953125 475.360351562 412.151367188 533.848632812 323.001953125 532.705078125 c 4
 234.122070312 531.565429688 170.446289062 469.541015625 169.010742188 329 c 4
EndSplineSet
Fore
SplineSet
45 230 m 0
 44 404 149 598 392 598 c 0
 490 598 543 569 543 569 c 1
 545 531 545 461 538 416 c 1
 478 422 l 1
 457 465 438 504 389 538 c 5
 460 535 l 1
 438 470 416 534 324 533 c 0
 245 532 171 476 169 325 c 0
 167 202 210 64 344 62 c 0
 409 61 468 86 505 121 c 1
 536 87 l 1
 484 23 410 -15 306 -15 c 0
 157 -15 46 69 45 230 c 0
EndSplineSet
EndChar

StartChar: w
Encoding: 62 119 22
GlifName: w
Width: 1006
VWidth: 79
Flags: HMW
LayerCount: 2
Back
Fore
SplineSet
-7 596 m 1
 113 587 189 589 295 596 c 1
 309 542 l 1
 253 546 196 538 220 460 c 1
 248 362 275 292 300 197 c 1
 311 162 325 74 325 74 c 1
 357 146 428 293 492 459 c 1
 573 456 l 1
 504 279 399 71 362 -9 c 9
 258 -26 l 1
 219 86 178 225 98 462 c 1
 79 527 48 533 1 532 c 1
 -7 596 l 1
378 596 m 1
 489 592 566 594 660 596 c 1
 670 542 l 1
 609 546 589 525 604 460 c 1
 632 362 653 292 678 197 c 5
 689 162 702 77 702 77 c 1
 734 149 784 293 838 459 c 1
 861 517 817 536 749 533 c 1
 740 596 l 1
 837 590 906 590 1000 596 c 1
 1011 538 l 1
 951 536 943 508 923 456 c 0
 854 279 783 71 746 -9 c 9
 642 -26 l 1
 608 86 553 245 483 482 c 1
 474 517 443 538 396 532 c 1
 378 596 l 1
EndSplineSet
EndChar

StartChar: V
Encoding: 33 86 23
GlifName: V_
Width: 779
VWidth: 79
Flags: HMW
LayerCount: 2
Back
SplineSet
846.319335938 759.60546875 m 5
 750.118164062 756.4921875 737.75390625 709.79296875 708.333984375 638.686523438 c 4
 607.73828125 395.549804688 492.083007812 92.47265625 440.807617188 -17.900390625 c 13
 305.850585938 -35.2626953125 l 5
 262.05859375 118.126953125 166.208007812 445.11328125 95.28125 640.72265625 c 5
 65.8955078125 722.461914062 19.380859375 750.809570312 -44.751953125 749.60546875 c 5
 -55.7490234375 819.33984375 l 5
 100.969726562 810.166015625 230.194335938 812.083984375 366.913085938 819.33984375 c 5
 380.16015625 755.104492188 l 5
 275.680664062 746.856445312 215.693359375 731.734375 236.314453125 642.375976562 c 5
 235.938476562 642.325195312 l 5
 272.0703125 507.569335938 310.123046875 375.205078125 355.350585938 244.821289062 c 5
 369.875 196.584960938 390.53515625 66.734375 387.7734375 74.982421875 c 5
 430.33203125 173.946289062 539.463867188 422.768554688 613.000976562 650.715820312 c 5
 635.381835938 730.470703125 565.267578125 756.823242188 472.391601562 752.731445312 c 5
 460.018554688 819.33984375 l 5
 592.91015625 811.728515625 698.3046875 813.844726562 831.196289062 819.33984375 c 5
 846.319335938 759.60546875 l 5
EndSplineSet
Fore
SplineSet
-22 799 m 5
 90 794 232 793 314 799 c 5
 324 735 l 5
 253 746 202 734 218 675 c 4
 252 556 326 384 369 245 c 0
 377 206 392 141 400 100 c 1
 460 301 552 591 567 654 c 4
 588 750 513 749 465 748 c 5
 455 799 l 5
 566 795 676 790 779 799 c 5
 789 738 l 5
 708 747 686 713 667 663 c 4
 574 429 505 188 450 8 c 1
 411 2 363 -10 324 -23 c 1
 263 187 194 401 94 669 c 0
 77 705 56 754 -12 744 c 5
 -22 799 l 5
EndSplineSet
EndChar

StartChar: C
Encoding: 14 67 24
GlifName: C_
Width: 748
VWidth: 79
Flags: HMW
LayerCount: 2
Back
Fore
SplineSet
57 299 m 4
 55 537 191 802 523 802 c 0
 684 802 753 766 753 766 c 1
 756 715 752 585 742 543 c 1
 683 546 l 1
 651 634 568 748 522 755 c 1
 536 776 718 732 665 637 c 1
 648 641 581 730 458 730 c 0
 300 730 193 589 190 393 c 4
 187 226 247 84 461 81 c 0
 550 80 632 118 683 166 c 1
 723 123 l 1
 652 35 551 -17 409 -17 c 0
 205 -17 58 92 57 299 c 4
EndSplineSet
EndChar

StartChar: q
Encoding: 56 113 25
GlifName: q
Width: 682
VWidth: 79
Flags: HMW
LayerCount: 2
Back
Fore
SplineSet
45 261 m 0
 51 433 134 615 364 617 c 0
 462 618 532 600 575 583 c 1
 503 453 l 1
 503 453 438 574 321 553 c 0
 239 538 170 439 169 256 c 0
 168 119 240 70 302 71 c 0
 359 72 429 117 465 201 c 1
 499 160 l 1
 451 47 346 -8 261 -8 c 0
 116 -8 39 90 45 261 c 0
333 -156 m 1
 345 -157 356 -158 366 -158 c 0
 421 -158 450 -137 453 -88 c 1
 572 -69 l 1
 572 -80 l 2
 572 -156 611 -170 659 -170 c 6
 667 -170 l 5
 677 -218 l 5
 341 -218 l 1
 333 -156 l 1
374 602 m 1
 575 583 l 1
 561 479 567 22 573 -102 c 0
 575 -149 518 -162 590 -161 c 1
 655 -185 l 5
 572 -183 439 -205 439 -205 c 1
 469 -37 463 386 459 443 c 0
 453 525 465 570 387 558 c 1
 374 602 l 1
EndSplineSet
EndChar

StartChar: f
Encoding: 45 102 26
GlifName: f
Width: 426
VWidth: 79
Flags: HMW
LayerCount: 2
Back
SplineSet
16 61 m 1
 92 57 128 78 132 136 c 1
 246 152 l 1
 244 57 336 53 364 54 c 1
 374 0 l 1
 23 0 l 1
 16 61 l 1
49 520 m 1
 39 588 l 1
 180.5078125 583.043945312 252.553710938 582.5 384 588 c 1
 397 522 l 1
 205 523.526367188 l 1
 131 439.640625 l 1
 131.806119792 506.45703125 127.041471355 529.84765625 49 520 c 1
179 126 m 1
 131 117 l 5
 134 279 134 398.844726562 124 603 c 4
 112.348303638 840.875525683 287.151353994 856.606023047 384 856 c 0
 454.639648438 855.543945312 508 829 508 829 c 1
 514.097371914 773.247646186 513.364257812 750.153320312 507 697 c 1
 422 704 l 1
 418.396484375 769.711914062 397.016111001 796.076821267 368.025390625 814 c 1
 417.333946049 853.716431559 461.855471991 786.49783642 416 760.916992188 c 1
 407.370666558 785.848473737 383.248161396 801.176248786 355 800.7265625 c 0
 275.005859375 799.453125 243.676255175 727.977754595 241 601 c 0
 237.260233192 423.562812246 235.344726562 251.282226562 251 112 c 1
 179 126 l 1
EndSplineSet
Fore
SplineSet
16 61 m 1
 77 57 116 73 117 118 c 1
 125 284 122 397 122 595 c 17
 117 802 230 864 365 856 c 4
 431 852 478 829 492 822 c 1
 472 766 l 5
 356 831 251 787 237 615 c 1
 236 615 l 1
 220 394 240 169 240 169 c 1
 245 113 l 1
 252 55 320 53 344 54 c 1
 354 0 l 1
 23 0 l 1
 16 61 l 1
21 587 m 1
 153 586 235 586 376 588 c 1
 389 521 l 1
 204 503 l 1
 160 470 l 1
 158 506 91 523 31 519 c 1
 21 587 l 1
EndSplineSet
Colour: ff0000
EndChar

StartChar: y
Encoding: 64 121 30
GlifName: y
Width: 665
VWidth: 79
Flags: HMW
LayerCount: 2
Back
Fore
SplineSet
-2 596 m 1
 112 591 206 593 320 596 c 1
 334 542 l 1
 258 536 210 525 225 460 c 1
 253 362 278 297 309 202 c 0
 320 167 338 66 338 66 c 1
 375 138 458 353 492 459 c 0
 510 518 472 536 404 533 c 1
 395 596 l 1
 492 590 568 592 665 596 c 1
 676 538 l 1
 606 536 600 507 578 456 c 0
 502 279 427 96 390 16 c 1
 361 13 297 -4 263 -8 c 1
 224 104 183 225 103 462 c 1
 84 527 53 539 6 538 c 1
 -2 596 l 1
53 -143 m 5
 246 -167 290 -43 334 52 c 13
 405 50 l 21
 379 -9 343 -106 309 -158 c 4
 256 -240 158 -267 73 -263 c 5
 35 -231 42 -163 53 -143 c 5
EndSplineSet
EndChar

StartChar: l
Encoding: 51 108 31
Width: 412
VWidth: 79
Flags: HMW
LayerCount: 2
Back
Fore
SplineSet
38 61 m 1
 114 57 147 89 154 137 c 1
 272 146 l 1
 270 51 346 50 364 51 c 1
 374 0 l 1
 48 0 l 1
 38 61 l 1
39 829 m 1
 122 827 296 850 296 850 c 1
 271 637 268 208 272 145 c 0
 275 101 254 49 336 49 c 1
 320 1 l 1
 125 0 l 1
 125 0 145 72 153 136 c 0
 163 271 164 529 159 719 c 0
 154 763 124 766 46 766 c 1
 39 829 l 1
EndSplineSet
EndChar

StartChar: u
Encoding: 60 117 34
Width: 728
VWidth: 79
Flags: HMW
LayerCount: 2
Back
Fore
SplineSet
-4 596 m 1
 88 591 169 599 239 608 c 1
 222 521 215 401 215 295 c 0
 215 251 217 211 221 181 c 0
 230 118 275 85 334 85 c 0
 435 85 503 181 503 181 c 1
 528 144 l 1
 479 76 369 -14 262 -14 c 0
 186 -14 128 23 114 117 c 0
 111 139 109 180 109 225 c 0
 109 296 113 383 116 459 c 0
 119 530 32 534 2 532 c 1
 -4 596 l 1
376 598 m 1
 449 593 568 600 625 610 c 1
 615 468 l 1
 500 455 l 1
 505 542 422 540 384 538 c 1
 376 598 l 1
496 120 m 1
 498 161 498 203 498 247 c 0
 498 271 498 294 498 319 c 0
 498 405 499 488 509 588 c 1
 624 600 l 1
 613 456 607 312 607 220 c 0
 607 115 599 59 711 56 c 1
 720 0 l 1
 502 0 l 1
 502 0 509 102 515 128 c 1
 515 137 517 141 514 141 c 0
 507 141 496 120 496 120 c 1
EndSplineSet
EndChar

StartChar: k
Encoding: 50 107 35
Width: 752
VWidth: 79
Flags: HMW
LayerCount: 2
Back
SplineSet
678 546 m 5
 648.022460938 543.735351562 618.467773438 519.403320312 587.810546875 489.861328125 c 4
 516.439453125 421.0859375 450.333007812 332.833007812 419 306.24609375 c 5
 388.032226562 298.850585938 300.302734375 314.678710938 248.661132812 314.616210938 c 5
 263.991210938 379 l 5
 295.391601562 376.96875 330.92578125 368.5703125 358 369 c 5
 378.278320312 379.099609375 441.205078125 433.505859375 483.733398438 486.791992188 c 4
 499.158203125 506.118164062 503.559570312 543.975585938 436 541 c 5
 417 594 l 5
 493.666992188 588.463867188 568.333007812 590.002929688 665 594 c 5
 678 546 l 5
263.338867188 379 m 5
 292.565429688 372.271484375 364.7265625 376.180664062 398.600585938 386.650390625 c 5
 398.600585938 386.650390625 586.124023438 57.0634765625 736 58 c 5
 748 0 l 5
 634 5.21875 556 3.095703125 442 0 c 5
 428 54 l 5
 464 50 512 71 457 136 c 5
 434.576171875 166.099609375 345.85546875 300.350585938 263.338867188 379 c 5
42 61 m 5
 118 57 150 89 157 137 c 5
 268 146 l 5
 266 51 350 50 368 51 c 5
 378 0 l 5
 52 0 l 5
 42 61 l 5
324 1 m 5
 129 0 l 5
 129 0 148 72 156 136 c 4
 165.962890625 270.504882812 168.65432478 529.093847489 163.21775642 718.883007723 c 4
 158.115035989 762.853348469 128.050736014 766.000000004 50 766 c 5
 43 829 l 5
 126 827 292 850 292 850 c 5
 267 637 264 208 268 145 c 4
 271 101 258 49 340 49 c 5
 324 1 l 5
EndSplineSet
Fore
SplineSet
42 61 m 1
 118 57 153 89 160 137 c 1
 268 146 l 1
 266 51 330 50 348 51 c 1
 358 0 l 1
 52 0 l 1
 42 61 l 1
43 829 m 1
 126 827 292 850 292 850 c 1
 267 637 264 208 268 145 c 0
 271 101 238 49 320 49 c 1
 304 1 l 1
 129 0 l 1
 129 0 151 72 159 136 c 0
 169 271 168 529 163 719 c 0
 158 763 128 766 50 766 c 1
 43 829 l 1
249 307 m 1
 264 369 l 1
 295 367 311 359 338 359 c 5
 358 369 421 434 464 497 c 0
 478 518 484 544 406 541 c 1
 387 594 l 1
 464 588 538 590 635 594 c 1
 648 546 l 1
 618 544 589 520 558 490 c 0
 487 421 420 333 389 306 c 1
 358 299 301 307 249 307 c 1
263 369 m 1
 292 362 345 367 379 377 c 5
 379 377 556 57 706 58 c 1
 718 0 l 1
 604 5 526 3 412 0 c 1
 398 54 l 1
 434 50 482 71 437 136 c 1
 415 166 336 290 263 369 c 1
EndSplineSet
EndChar

StartChar: j
Encoding: 49 106 36
Width: 366
VWidth: 79
Flags: HMW
LayerCount: 2
Back
SplineSet
99.8544921875 781.734375 m 4
 99.8544921875 823.528320312 133.403320312 852.086914062 174.846679688 852.086914062 c 4
 225.00390625 852.086914062 249.841796875 812.982421875 249.841796875 771.190429688 c 4
 249.841796875 729.396484375 216.29296875 700.8359375 174.846679688 700.8359375 c 4
 133.403320312 700.8359375 99.8544921875 739.940429688 99.8544921875 781.734375 c 4
99.8544921875 781.734375 m 4
 99.8544921875 823.528320312 133.403320312 852.086914062 174.846679688 852.086914062 c 4
 225.00390625 852.086914062 249.841796875 812.982421875 249.841796875 771.190429688 c 4
 249.841796875 729.396484375 216.29296875 700.8359375 174.846679688 700.8359375 c 4
 133.403320312 700.8359375 99.8544921875 739.940429688 99.8544921875 781.734375 c 4
-28 -79 m 5
 68 -103 147 -71 161 77 c 5
 261 72 l 5
 262.500976562 -104.223632812 196.19921875 -152.735351562 69 -154.159179688 c 4
 14.095703125 -154.7734375 -37.2060546875 -138.005859375 -51 -130 c 5
 -28 -79 l 5
31 584 m 5
 114 582 271 595 271 595 c 5
 261.327148438 539.604492188 259.629882812 147.107421875 261 60 c 5
 161 70 l 5
 176 270 157 386 150 448 c 4
 145 493 109 523 37 523 c 5
 31 584 l 5
EndSplineSet
Fore
SplineSet
-51 -240 m 1
 -28 -189 l 1
 68 -213 140 -151 154 -3 c 1
 261 -8 l 1
 263 -184 196 -263 69 -264 c 0
 14 -265 -37 -248 -51 -240 c 1
31 584 m 1
 114 582 271 595 271 595 c 1
 261 540 260 67 261 -20 c 1
 154 -10 l 1
 169 190 157 386 150 448 c 0
 145 493 109 523 37 523 c 1
 31 584 l 1
100 782 m 0
 100 824 134 852 175 852 c 0
 225 852 250 813 250 771 c 0
 250 729 216 701 175 701 c 0
 134 701 100 740 100 782 c 0
100 782 m 0
 100 824 134 852 175 852 c 0
 225 852 250 813 250 771 c 0
 250 729 216 701 175 701 c 0
 134 701 100 740 100 782 c 0
EndSplineSet
EndChar

StartChar: comma
Encoding: 6 44 37
Width: 182
VWidth: 79
Flags: HMW
LayerCount: 2
Back
Fore
SplineSet
19 46 m 0
 17 92 51 122 89 122 c 0
 135 122 159 96 159 57 c 0
 159 18 136 -11 99 -20 c 1
 80 -11 21 -2 19 46 c 0
38 -104 m 1
 44 -93 69 -40 55 31 c 9
 111 58 l 25
 121 26 160 88 159 57 c 0
 157 4 91 -105 66 -125 c 1
 38 -104 l 1
EndSplineSet
EndChar

StartChar: acute
Encoding: 128 180 43
Width: 496
VWidth: 0
Flags: HMW
LayerCount: 2
Back
Fore
SplineSet
73 1120 m 9
 83 1066 l 17
 191 1081 368 1158 431 1204 c 9
 371 1298 l 21
 308 1232 165 1142 73 1120 c 9
EndSplineSet
EndChar

StartChar: x
Encoding: 63 120 50
Width: 613
VWidth: 79
Flags: HMW
LayerCount: 2
Back
Fore
SplineSet
14 598 m 1
 108 590 212 591 286 597 c 1
 300 542 l 1
 224 541 215 515 240 470 c 1
 272 405 299 381 330 336 c 1
 349 331 l 1
 400 261 494 61 594 58 c 1
 606 -2 l 1
 326 -2 l 1
 317 53 l 1
 353 49 396 69 355 136 c 0
 328 179 291 243 258 286 c 1
 244 286 l 1
 212 343 160 411 124 472 c 1
 93 527 69 541 22 540 c 1
 14 598 l 1
19 54 m 1
 76 53 92 78 115 110 c 0
 145 152 212 263 249 326 c 1
 308 326 l 1
 344 376 386 437 410 476 c 0
 438 523 415 537 361 538 c 1
 355 598 l 1
 428 592 518 592 583 598 c 1
 591 544 l 1
 517 544 519 520 481 465 c 0
 442 408 395 333 365 294 c 1
 312 284 l 1
 272 240 241 175 209 122 c 1
 190 87 182 47 248 50 c 1
 260 -2 l 1
 21 -2 l 1
 19 54 l 1
EndSplineSet
Colour: ff0000
EndChar

StartChar: dieresis
Encoding: 129 168 51
Width: 496
VWidth: 0
Flags: HMW
LayerCount: 2
Back
Fore
SplineSet
73 1140 m 13
 83 1066 l 21
 191 1081 368 1158 431 1204 c 13
 371 1298 l 21
 328 1242 165 1162 73 1140 c 13
EndSplineSet
EndChar

StartChar: z
Encoding: 65 122 52
Width: 560
VWidth: 79
Flags: HMW
LayerCount: 2
Back
Fore
SplineSet
22 0 m 5
 186 0 251 0 506 0 c 1
 519 55 520 118 518 181 c 1
 516 181 469 175 459 175 c 1
 459 125 451 78 436 78 c 1
 367 68 299 67 291 67 c 0
 181 68 193 89 233 150 c 1
 252 182 483 491 528 546 c 5
 532 598 l 5
 458 593 217 588 62 598 c 1
 57 542 55 471 60 418 c 1
 121 424 l 1
 119 444 129 503 140 521 c 1
 188 529 319 534 375 525 c 1
 334 454 134 170 28 62 c 1
 22 0 l 5
EndSplineSet
Colour: ff0000
EndChar

StartChar: E
Encoding: 16 69 54
Width: 679
VWidth: 79
Flags: HMW
LayerCount: 2
Back
Fore
SplineSet
50 61 m 1
 121 49 143 89 150 137 c 1
 264 135 l 1
 265 117 270 77 306 73 c 0
 396 64 500 79 537 86 c 1
 482 29 l 1
 515 68 550 145 557 204 c 1
 629 212 l 1
 629 212 638 139 638 80 c 24
 638 56 631 0 631 0 c 1
 440 0 249 0 58 0 c 1
 50 61 l 1
61 800 m 1
 137 794 273 795 356 795 c 0
 442 795 551 796 648 801 c 1
 648 801 651 744 651 720 c 24
 651 661 642 588 642 588 c 1
 570 596 l 1
 563 655 538 732 495 771 c 1
 590 722 l 1
 509 730 438 733 339 733 c 0
 289 733 277 703 274 673 c 0
 255 471 262 198 264 145 c 0
 266 99 274 44 333 44 c 1
 317 26 l 1
 122 30 l 1
 122 30 142 72 150 136 c 0
 160 265 165 489 160 663 c 1
 153 711 143 743 67 739 c 1
 61 800 l 1
194 367 m 1
 194 443 l 1
 394 444 l 1
 538 461 l 1
 538 370 l 1
 413 377 319 369 194 367 c 1
EndSplineSet
Colour: ff0000
EndChar

StartChar: F
Encoding: 17 70 55
Width: 691
VWidth: 79
Flags: HMW
LayerCount: 2
Back
Fore
SplineSet
42 61 m 1
 125 57 147 89 155 137 c 1
 267 146 l 1
 265 51 377 50 394 51 c 1
 404 0 l 1
 52 0 l 1
 42 61 l 1
61 800 m 1
 137 794 253 794 336 794 c 0
 422 794 551 796 678 801 c 1
 678 801 681 744 681 720 c 24
 681 661 672 588 672 588 c 1
 600 596 l 1
 593 655 568 732 525 771 c 1
 610 721 l 1
 353 728 l 2
 295 729 279 705 276 663 c 4
 260 443 263 202 267 145 c 0
 270 101 287 49 366 49 c 1
 350 1 l 1
 127 0 l 1
 127 0 146 72 154 136 c 0
 164 270 165 482 160 663 c 1
 153 711 143 743 67 739 c 1
 61 800 l 1
194 377 m 1
 194 443 l 1
 424 444 l 1
 568 461 l 1
 568 370 l 1
 443 377 319 379 194 377 c 1
EndSplineSet
Colour: ff0000
EndChar

StartChar: P
Encoding: 27 80 56
Width: 650
VWidth: 79
Flags: HMW
LayerCount: 2
Back
Fore
SplineSet
17 797 m 1
 205 785 276 802 426 802 c 0
 581 802 639 717 640 607 c 0
 642 438 521 293 363 291 c 0
 312 290 244 304 244 304 c 1
 243 204 243 197 253 123 c 0
 260 65 305 61 358 61 c 1
 380 0 l 1
 312 -1 107 0 33 0 c 1
 23 61 l 1
 102 51 133 77 135 127 c 0
 144 342 147 467 139 627 c 0
 136 685 119 741 27 734 c 1
 17 797 l 1
246 399 m 1
 280 373 324 356 376 357 c 0
 489 358 526 464 527 571 c 0
 528 684 455 744 375 746 c 0
 329 747 275 738 252 729 c 1
 244 652 247 497 246 399 c 1
EndSplineSet
EndChar

StartChar: S
Encoding: 30 83 57
Width: 611
VWidth: 153
Flags: HMW
LayerCount: 2
Back
Fore
SplineSet
58 4 m 1
 53 49 55 129 67 206 c 1
 163 195 l 1
 167 135 181 78 219 34 c 1
 160 48 143 104 132 159 c 1
 169 116 192 44 292 43 c 0
 393 42 456 105 461 165 c 0
 477 338 105 323 70 532 c 0
 50 658 160 792 361 788 c 0
 481 786 561 754 561 754 c 1
 567 706 564 615 557 571 c 1
 465 582 l 1
 463 630 445 706 418 768 c 2
 488 603 l 1
 469 626 440 732 326 733 c 0
 245 734 187 670 196 601 c 0
 218 430 557 459 577 233 c 0
 590 83 469 -26 289 -27 c 0
 156 -27 58 4 58 4 c 1
EndSplineSet
EndChar

StartChar: U
Encoding: 32 85 58
Width: 767
VWidth: 79
Flags: HMW
LayerCount: 2
Back
Fore
SplineSet
-9 800 m 1
 57 794 75 791 147 792 c 0
 188 792 278 793 339 801 c 1
 339 801 344 755 347 736 c 1
 246 750 220 679 215 612 c 0
 206 484 204 298 208 255 c 4
 218 138 273 52 427 65 c 4
 502 72 587 116 587 247 c 2
 587 319 l 2
 587 420 588 535 591 641 c 2
 591 642 l 1
 590 733 534 738 464 728 c 1
 461 744 457 790 455 799 c 1
 521 793 569 790 641 791 c 0
 682 791 707 792 768 800 c 1
 768 800 773 754 776 735 c 1
 726 742 682 716 676 663 c 1
 670 499 666 327 666 220 c 0
 666 50 510 -14 381 -14 c 0
 216 -14 92 20 92 225 c 0
 92 349 103 556 99 640 c 0
 95 711 83 740 0 729 c 1
 -3 745 -7 791 -9 800 c 1
EndSplineSet
Colour: ff0000
EndChar

StartChar: I
Encoding: 20 73 59
Width: 422
VWidth: 79
Flags: HMW
LayerCount: 2
Back
Fore
SplineSet
13 69 m 1
 86 54 143 79 148 162 c 0
 156 273 159 479 155 643 c 5
 154 734 98 739 28 729 c 5
 25 745 21 791 19 800 c 5
 85 794 133 791 205 792 c 4
 246 792 336 793 397 801 c 5
 397 801 402 755 405 736 c 5
 354 743 286 720 282 665 c 4
 270 483 264 186 270 139 c 0
 281 69 337 62 389 69 c 1
 400 0 l 1
 21 -1 l 1
 13 69 l 1
EndSplineSet
EndChar

StartChar: O
Encoding: 26 79 60
Width: 806
VWidth: 153
Flags: HMW
LayerCount: 2
Back
Fore
SplineSet
28 315 m 4
 26 606 202 804 438 803 c 4
 635 802 772 697 764 438 c 4
 757 205 642 -19 355 -14 c 4
 126 -10 30 121 28 315 c 4
161 411 m 4
 155 209 255 53 416 69 c 4
 554 84 640 232 645 404 c 4
 651 599 535 750 374 726 c 4
 309 716 168 659 161 411 c 4
EndSplineSet
EndChar

StartChar: T
Encoding: 31 84 81
Width: 620
VWidth: 79
Flags: HMW
LayerCount: 2
Back
Fore
SplineSet
-6 600 m 5
 -6 737 -6 703 -5 800 c 5
 103 794 182 791 300 792 c 4
 369 792 520 793 622 801 c 5
 622 801 625 744 625 720 c 4
 625 661 616 588 616 588 c 5
 544 596 l 5
 537 655 512 732 469 771 c 5
 554 702 l 5
 465 733 385 721 300 728 c 5
 209 727 97 712 60 723 c 5
 114 760 l 5
 76 724 77 649 73 613 c 5
 -6 600 l 5
115 61 m 1
 191 57 224 89 231 137 c 1
 356 146 l 1
 354 51 430 50 448 51 c 1
 458 0 l 1
 125 0 l 1
 115 61 l 1
186 759 m 1
 249 757 380 780 380 780 c 1
 355 588 352 202 356 145 c 0
 359 101 338 49 420 49 c 1
 404 1 l 1
 202 0 l 1
 202 0 225 72 230 136 c 0
 240 266 244 516 236 699 c 0
 234 743 223 746 193 746 c 1
 186 759 l 1
EndSplineSet
EndChar

StartChar: R
Encoding: 29 82 82
Width: 798
VWidth: 79
Flags: HMW
LayerCount: 2
Back
Fore
SplineSet
17 797 m 1
 205 785 276 802 426 802 c 0
 581 802 639 717 640 607 c 0
 642 438 521 333 363 331 c 0
 312 330 244 324 244 324 c 5
 243 224 243 197 253 123 c 0
 260 65 305 61 358 61 c 1
 380 0 l 1
 312 -1 107 0 33 0 c 1
 23 61 l 1
 102 51 133 77 135 127 c 0
 144 342 147 467 139 627 c 0
 136 685 119 741 27 734 c 1
 17 797 l 1
246 409 m 1
 280 403 324 396 376 397 c 0
 489 398 526 464 527 571 c 0
 528 684 455 744 375 746 c 0
 329 747 275 738 252 729 c 1
 244 652 247 507 246 409 c 1
323 369 m 1
 352 362 435 377 469 387 c 1
 469 387 646 60 796 61 c 1
 808 0 l 1
 694 5 616 3 502 0 c 1
 488 57 l 1
 524 53 582 61 537 126 c 1
 515 156 406 320 323 369 c 1
EndSplineSet
EndChar

StartChar: Q
Encoding: 28 81 83
Width: 842
VWidth: 153
Flags: HMW
LayerCount: 2
Back
Fore
SplineSet
334 -4 m 1
 405 5 l 1
 461 -96 567 -126 680 -128 c 0
 803 -130 912 -86 912 -86 c 1
 898 -204 l 1
 835 -224 768 -240 655 -239 c 0
 411 -235 363 -74 334 -4 c 1
EndSplineSet
Refer: 60 79 N 1 0 0 1 0 0 2
EndChar

StartChar: L
Encoding: 23 76 84
Width: 679
VWidth: 79
Flags: HMW
LayerCount: 2
Back
Fore
SplineSet
49 0 m 1
 59 61 l 1
 135 57 148 89 155 137 c 1
 269 135 l 1
 270 117 275 77 311 73 c 0
 401 64 505 79 542 86 c 1
 487 29 l 1
 520 68 555 145 562 204 c 1
 634 212 l 1
 634 212 643 139 643 80 c 24
 643 56 636 0 636 0 c 1
 440 0 245 0 49 0 c 1
61 800 m 1
 137 794 193 792 276 792 c 0
 314 792 351 794 396 796 c 5
 392 732 l 5
 375 732 357 733 339 733 c 0
 289 733 287 693 285 673 c 0
 263 471 267 198 269 145 c 0
 271 99 279 44 338 44 c 1
 322 26 l 1
 127 30 l 1
 127 30 147 72 155 136 c 0
 165 265 165 489 160 663 c 1
 153 711 143 743 67 739 c 1
 61 800 l 1
EndSplineSet
EndChar

StartChar: G
Encoding: 18 71 85
Width: 757
VWidth: 79
Flags: HMW
LayerCount: 2
Back
Fore
SplineSet
37 299 m 0
 35 537 162 802 493 802 c 0
 614 802 693 767 693 767 c 1
 696 716 702 616 699 574 c 1
 633 577 l 1
 601 665 538 748 492 755 c 1
 506 776 688 747 635 652 c 1
 618 656 551 720 428 720 c 0
 278 720 170 592 167 396 c 0
 164 222 239 70 426 67 c 4
 535 65 599 107 644 159 c 1
 713 126 l 1
 640 11 499 -27 392 -27 c 0
 178 -27 38 92 37 299 c 0
384 398 m 1
 490 398 585 398 694 398 c 1
 681 285 l 1
 622 313 580 323 398 324 c 1
 384 398 l 1
589 56 m 1
 629 156 609 339 609 398 c 1
 696 398 l 1
 706 346 721 190 713 126 c 1
 589 56 l 1
EndSplineSet
Colour: ff0000
EndChar

StartChar: D
Encoding: 15 68 86
Width: 799
VWidth: 79
Flags: HMW
LayerCount: 2
Back
Fore
SplineSet
17 798 m 1
 209 786 356 803 446 803 c 0
 614 803 768 711 766 463 c 0
 762 142 597 4 320 0 c 0
 252 -1 107 0 33 0 c 1
 23 61 l 1
 102 51 133 77 135 127 c 0
 144 342 147 468 139 628 c 0
 136 686 119 742 27 735 c 1
 17 798 l 1
252 719 m 1
 236 483 240 338 253 142 c 1
 260 80 305 74 358 75 c 0
 549 77 646 196 652 372 c 0
 660 596 541 734 373 738 c 0
 319 739 279 729 252 719 c 1
EndSplineSet
Colour: ff0000
EndChar

StartChar: J
Encoding: 21 74 87
Width: 422
VWidth: 79
Flags: HMW
LayerCount: 2
Back
Fore
SplineSet
-34 -193 m 1
 -7 -142 l 1
 173 -187 162 -18 166 84 c 0
 171 205 158 460 155 643 c 0
 154 734 68 739 38 729 c 1
 35 745 31 791 29 800 c 1
 95 794 133 791 205 792 c 0
 246 792 326 793 387 801 c 1
 387 801 392 755 395 736 c 1
 344 743 285 720 282 665 c 0
 271 415 272 261 278 39 c 0
 282 -94 243 -226 76 -227 c 0
 21 -227 -20 -201 -34 -193 c 1
EndSplineSet
EndChar

StartChar: K
Encoding: 22 75 88
Width: 752
VWidth: 79
Flags: HMW
LayerCount: 2
Back
Fore
SplineSet
22 64 m 1
 98 60 133 89 140 137 c 1
 248 146 l 1
 246 51 310 53 328 54 c 1
 338 0 l 1
 32 0 l 1
 22 64 l 1
23 798 m 1
 106 796 272 810 272 810 c 1
 247 597 244 208 248 145 c 0
 251 101 218 52 300 52 c 1
 284 1 l 1
 109 0 l 1
 109 0 131 72 139 136 c 0
 149 271 148 489 143 679 c 0
 138 723 108 735 30 735 c 1
 23 798 l 1
224 469 m 1
 255 467 321 469 348 469 c 1
 368 479 475 629 518 692 c 0
 532 713 528 739 450 736 c 1
 441 799 l 1
 518 793 638 792 706 803 c 1
 718 731 l 1
 678 732 660 727 631 695 c 0
 570 626 420 416 389 389 c 1
 358 382 281 390 229 390 c 1
 224 469 l 1
253 469 m 5
 282 462 345 467 379 477 c 5
 379 477 616 60 766 61 c 5
 778 0 l 5
 664 5 586 3 472 0 c 5
 458 57 l 5
 494 53 552 61 507 126 c 5
 485 156 306 390 253 469 c 5
EndSplineSet
Colour: ff0000
EndChar

StartChar: Z
Encoding: 37 90 89
Width: 679
VWidth: 79
Flags: HMW
LayerCount: 2
Back
Fore
SplineSet
12 0 m 1
 13 14 17 46 19 71 c 1
 93 128 347 542 447 702 c 0
 458 720 463 733 413 733 c 0
 340 733 221 731 163 727 c 1
 140 687 137 637 132 596 c 1
 60 588 l 1
 60 588 51 661 51 720 c 0
 51 744 54 801 54 801 c 1
 101 803 210 796 296 796 c 0
 379 796 581 794 657 800 c 1
 645 739 l 1
 556 672 196 74 177 56 c 1
 136 115 l 1
 167 85 251 76 307 73 c 0
 384 68 500 75 547 82 c 1
 567 120 574 166 578 204 c 1
 650 212 l 1
 650 212 659 139 659 80 c 0
 659 56 652 0 652 0 c 1
 439 0 225 0 12 0 c 1
EndSplineSet
EndChar

StartChar: Y
Encoding: 36 89 90
Width: 681
VWidth: 79
Flags: HMW
LayerCount: 2
Back
Fore
SplineSet
-32 802 m 1
 82 797 166 799 280 802 c 1
 294 748 l 1
 218 742 189 725 214 670 c 1
 240 622 278 563 314 498 c 1
 325 463 346 415 346 415 c 1
 390 487 437 559 498 665 c 1
 526 724 472 742 404 739 c 1
 395 802 l 1
 492 796 588 798 685 802 c 1
 696 744 l 1
 636 742 607 710 578 662 c 0
 482 505 416 412 379 332 c 1
 350 329 326 320 292 310 c 1
 238 412 196 483 89 668 c 1
 60 733 23 745 -24 744 c 1
 -32 802 l 1
187 69 m 1
 260 54 275 93 282 145 c 0
 289 196 288 249 274 373 c 1
 388 395 l 1
 366 253 379 169 390 122 c 0
 401 73 427 62 479 69 c 1
 500 0 l 1
 195 -1 l 1
 187 69 l 1
EndSplineSet
Colour: ff0000
EndChar

StartChar: X
Encoding: 35 88 91
Width: 813
VWidth: 79
Flags: HMW
LayerCount: 2
Back
Fore
SplineSet
19 801 m 1
 145 790 284 792 383 800 c 1
 402 736 l 1
 300 735 259 710 293 650 c 1
 313 619 423 453 432 440 c 1
 458 444 l 1
 526 350 662 72 796 68 c 1
 812 -3 l 1
 437 -3 l 1
 425 61 l 1
 473 56 561 62 506 152 c 0
 470 210 400 325 356 383 c 1
 327 383 l 1
 284 459 214 550 166 632 c 1
 124 706 92 735 29 734 c 1
 19 801 l 1
25 62 m 1
 101 61 123 104 154 147 c 0
 194 203 294 353 344 437 c 1
 413 437 l 1
 461 504 527 586 559 638 c 0
 597 701 556 730 484 731 c 1
 476 801 l 1
 574 793 694 793 781 801 c 1
 792 739 l 1
 693 739 696 697 645 623 c 0
 593 547 519 446 479 394 c 1
 418 381 l 1
 364 322 313 234 270 163 c 1
 245 116 244 53 332 57 c 1
 348 -3 l 1
 28 -3 l 1
 25 62 l 1
EndSplineSet
Colour: ff0000
EndChar

StartChar: N
Encoding: 25 78 92
Width: 926
VWidth: 79
Flags: HMW
LayerCount: 2
Back
Fore
SplineSet
13 69 m 5
 86 54 133 79 138 162 c 4
 146 273 149 479 145 643 c 4
 144 734 98 739 28 729 c 5
 25 745 21 791 19 800 c 5
 118 791 179 790 293 794 c 5
 370 677 656 266 744 140 c 4
 749 132 683 104 688 96 c 5
 706 177 704 518 695 643 c 4
 688 734 646 739 576 729 c 5
 573 745 569 791 567 800 c 5
 633 794 653 791 725 792 c 4
 766 792 836 793 897 801 c 5
 897 801 902 755 905 736 c 5
 854 743 807 720 802 665 c 4
 787 486 790 215 798 0 c 5
 770 -4 753 -5 703 -16 c 5
 701 -17 l 5
 521 255 391 446 242 650 c 5
 230 468 234 186 240 139 c 4
 251 69 307 62 359 69 c 5
 370 0 l 5
 21 -1 l 5
 13 69 l 5
EndSplineSet
EndChar

StartChar: M
Encoding: 24 77 101
Width: 1093
VWidth: 79
Flags: HMW
LayerCount: 2
Back
Fore
SplineSet
19 800 m 1
 118 791 168 790 282 794 c 1
 323 711 443 504 519 350 c 1
 540 289 565 214 588 176 c 1
 576 116 l 1
 507 95 l 1
 469 189 280 578 232 650 c 1
 231 641 261 682 260 673 c 0
 250 491 254 183 260 139 c 0
 271 69 347 62 399 69 c 1
 410 0 l 1
 31 -1 l 1
 23 69 l 1
 96 54 153 79 158 162 c 0
 166 273 169 479 165 643 c 0
 164 734 78 739 28 729 c 1
 25 745 21 791 19 800 c 1
522 150 m 1
 631 368 757 677 804 794 c 1
 918 790 968 791 1067 800 c 1
 1071 771 1074 745 1078 729 c 1
 1008 739 951 734 950 643 c 0
 946 479 949 273 957 162 c 0
 962 79 1003 54 1076 69 c 1
 1088 -1 l 1
 676 0 l 1
 667 69 l 1
 719 62 805 69 816 139 c 0
 822 186 826 518 814 700 c 1
 807 690 858 738 851 728 c 1
 757 555 688 365 577 116 c 1
 522 150 l 1
EndSplineSet
EndChar

StartChar: grave
Encoding: 39 96 102
Width: 496
VWidth: 0
Flags: HMW
LayerCount: 2
Back
Fore
SplineSet
73 920 m 13
 83 866 l 21
 191 881 368 958 431 1004 c 13
 371 1098 l 21
 308 1032 165 942 73 920 c 13
EndSplineSet
EndChar

StartChar: question
Encoding: 11 63 104
Width: 542
VWidth: 153
Flags: HMW
LayerCount: 2
Back
Fore
SplineSet
80 732 m 1
 192 732 l 1
 182 697 175 627 172 592 c 1
 87 580 l 1
 79 612 75 697 80 732 c 1
80 732 m 1
 133 765 220 801 307 801 c 0
 426 801 524 734 496 580 c 0
 461 393 298 345 213 318 c 1
 208 310 261 378 261 364 c 0
 261 299 276 219 280 198 c 5
 167 196 l 5
 168 233 167 340 168 364 c 1
 220 377 362 400 383 532 c 0
 400 636 356 722 232 732 c 0
 178 736 135 710 105 693 c 1
 80 732 l 1
EndSplineSet
Refer: 11 46 N 1 0 0 1 147 -10 2
EndChar

StartChar: quotesingle
Encoding: 3 39 105
Width: 192
VWidth: 79
Flags: HMW
LayerCount: 2
Back
Fore
SplineSet
22 746 m 4
 20 792 54 822 92 822 c 4
 138 822 162 795 162 756 c 4
 162 717 139 688 102 679 c 5
 83 688 24 698 22 746 c 4
41 596 m 5
 47 607 72 659 58 730 c 13
 114 757 l 29
 124 725 163 787 162 756 c 4
 160 703 94 595 69 575 c 5
 41 596 l 5
EndSplineSet
EndChar

StartChar: exclam
Encoding: 1 33 149
Width: 342
VWidth: 153
Flags: HMW
LayerCount: 2
Back
Fore
SplineSet
89 752 m 1
 116 776 173 793 207 791 c 1
 207 791 220 759 221 697 c 0
 222 531 197 414 175 211 c 1
 102 206 l 1
 115 399 117 580 89 752 c 1
EndSplineSet
Refer: 11 46 N 1 0 0 1 67 -10 2
EndChar

StartChar: parenright
Encoding: 5 41 150
Width: 371
VWidth: 153
Flags: HMW
LayerCount: 2
Back
Fore
SplineSet
52 -85 m 1
 133 47 189 231 187 392 c 0
 186 523 173 646 69 774 c 1
 124 823 l 1
 182 777 286 673 301 479 c 0
 319 252 238 72 118 -115 c 1
 52 -85 l 1
EndSplineSet
EndChar

StartChar: parenleft
Encoding: 4 40 151
Width: 351
VWidth: 153
Flags: HMW
LayerCount: 2
Back
Fore
SplineSet
87 235 m 0
 69 462 150 642 270 829 c 1
 336 799 l 1
 255 667 199 483 201 322 c 0
 202 191 215 68 319 -60 c 1
 264 -109 l 1
 206 -63 102 41 87 235 c 0
EndSplineSet
EndChar

StartChar: hyphen
Encoding: 7 45 152
Width: 569
VWidth: 153
Flags: HW
LayerCount: 2
Back
Fore
SplineSet
39 308 m 5
 53 413 l 5
 246 403 357 403 529 413 c 5
 527 386 521 342 519 308 c 5
 39 308 l 5
EndSplineSet
EndChar

StartChar: underscore
Encoding: 38 95 153
Width: 669
VWidth: 153
Flags: HW
LayerCount: 2
Back
Fore
SplineSet
39 1 m 5
 53 96 l 5
 246 86 457 86 629 96 c 5
 627 69 621 35 619 1 c 5
 39 1 l 5
EndSplineSet
EndChar

StartChar: emdash
Encoding: 154 8212 154
Width: 669
VWidth: 153
Flags: HW
LayerCount: 2
Back
Fore
SplineSet
39 308 m 1
 53 403 l 1
 246 393 457 393 629 403 c 5
 627 376 621 342 619 308 c 5
 39 308 l 1
EndSplineSet
EndChar
